<svg version="1.1" id="Layer_1" xmlns="http://www.w3.org/2000/svg" xmlns:xlink="http://www.w3.org/1999/xlink" x="0px" y="0px"
	 width="100%" viewBox="0 0 218 122" enable-background="new 0 0 218 122" xml:space="preserve">
<path fill="#FFFFFF" opacity="1.000000" stroke="none" 
	d="
M145.000000,123.000000 
	C96.666679,123.000000 48.833363,123.000000 1.000032,123.000000 
	C1.000021,82.333359 1.000021,41.666721 1.000011,1.000059 
	C73.666618,1.000040 146.333237,1.000040 218.999908,1.000020 
	C218.999939,41.666607 218.999939,82.333214 218.999969,122.999908 
	C194.500000,123.000000 170.000000,123.000000 145.000000,123.000000 
M209.055862,6.029430 
	C144.071411,6.021214 79.086945,6.010636 14.102489,6.008374 
	C7.478331,6.008143 6.007792,7.515236 6.006577,14.262734 
	C6.000932,45.588615 5.998934,76.914497 6.020293,108.240372 
	C6.021420,109.892799 6.248328,111.545082 6.246935,113.973442 
	C6.561399,115.257057 6.875864,116.540680 8.086421,117.943733 
	C76.624405,117.943733 145.162384,117.943733 214.020828,117.943733 
	C214.020828,108.871338 214.020813,100.245155 214.020813,91.618965 
	C214.020813,65.311386 214.051910,39.003670 213.941910,12.696553 
	C213.935455,11.153464 212.790024,9.615137 212.218399,7.929282 
	C212.218399,7.929282 212.109802,7.823286 212.053146,7.141087 
	C211.364258,6.804199 210.675354,6.467310 209.055862,6.029430 
z"/>
<path fill="#0495DB" opacity="1.000000" stroke="none" 
	d="
M7.190328,117.824295 
	C6.875864,116.540680 6.561399,115.257057 6.590592,113.618965 
	C7.309791,113.219841 7.685332,113.175201 8.455866,113.019455 
	C9.231527,111.556107 9.943067,110.204193 9.944411,108.851585 
	C9.976851,76.228500 9.933395,43.605343 10.048723,10.769885 
	C10.456439,10.339598 10.719091,10.121625 11.451068,9.936441 
	C74.839752,9.977236 137.759201,10.022984 200.678299,9.900332 
	C204.490143,9.892902 208.299362,8.546605 212.109802,7.823285 
	C212.109802,7.823286 212.218399,7.929282 212.080002,8.260965 
	C211.629883,9.062017 211.318176,9.531385 210.657715,10.191218 
	C209.880051,12.412175 209.083038,14.441674 209.077560,16.473310 
	C208.997162,46.266911 209.033707,76.060806 209.014648,105.854607 
	C209.009537,113.846481 209.768555,113.012932 201.739838,113.014885 
	C139.988403,113.029877 78.236954,113.007347 16.485659,113.099503 
	C14.636133,113.102264 12.788297,114.235840 10.616179,114.926979 
	C9.258565,115.949280 8.224446,116.886787 7.190328,117.824295 
M184.770233,91.286720 
	C188.393951,88.367416 192.269211,85.707527 195.595963,82.481941 
	C207.268738,71.164169 208.333862,58.288010 198.668213,45.341442 
	C192.753998,37.419697 184.773438,31.943121 175.837906,28.002680 
	C139.631042,12.035954 102.416451,10.409378 64.531738,20.875751 
	C50.291069,24.810005 36.603981,30.315407 26.196232,41.298244 
	C13.645751,54.542213 12.741645,65.756317 22.883701,79.179253 
	C28.624022,86.776512 36.342236,92.071419 44.928200,95.957977 
	C74.964127,109.554222 106.322304,112.735703 138.688644,107.431633 
	C154.747925,104.799896 170.128571,100.173515 184.770233,91.286720 
z"/>
<path fill="#00486C" opacity="1.000000" stroke="none" 
	d="
M7.638374,117.884018 
	C8.224446,116.886787 9.258565,115.949280 11.087210,114.992500 
	C76.334785,114.988640 140.787933,114.960236 205.240677,115.108421 
	C210.035004,115.119446 211.114853,113.339966 211.095291,108.928047 
	C210.949066,75.952805 211.010269,42.976635 211.006470,10.000755 
	C211.318176,9.531385 211.629883,9.062017 212.058105,8.333622 
	C212.790024,9.615137 213.935455,11.153464 213.941910,12.696553 
	C214.051910,39.003670 214.020813,65.311386 214.020813,91.618965 
	C214.020813,100.245155 214.020828,108.871338 214.020828,117.943733 
	C145.162384,117.943733 76.624405,117.943733 7.638374,117.884018 
z"/>
<path fill="#68BFEB" opacity="1.000000" stroke="none" 
	d="
M10.981744,9.903652 
	C10.719091,10.121625 10.456439,10.339598 9.662764,10.870647 
	C8.754103,12.534133 8.048541,13.884132 8.046847,15.235013 
	C8.005934,47.866806 8.040190,80.498695 8.060873,113.130562 
	C7.685332,113.175201 7.309791,113.219841 6.652187,113.230957 
	C6.248328,111.545082 6.021420,109.892799 6.020293,108.240372 
	C5.998934,76.914497 6.000932,45.588615 6.006577,14.262734 
	C6.007792,7.515236 7.478331,6.008143 14.102489,6.008374 
	C79.086945,6.010636 144.071411,6.021214 209.308807,6.406018 
	C207.517426,7.187923 205.473450,7.945362 203.428711,7.947418 
	C141.099564,8.010118 78.770317,7.982440 16.441254,8.078513 
	C14.620482,8.081320 12.801539,9.268628 10.981744,9.903652 
z"/>
<path fill="#55B7E8" opacity="1.000000" stroke="none" 
	d="
M11.451068,9.936441 
	C12.801539,9.268628 14.620482,8.081320 16.441254,8.078513 
	C78.770317,7.982440 141.099564,8.010118 203.428711,7.947418 
	C205.473450,7.945362 207.517426,7.187923 209.774109,6.456514 
	C210.675354,6.467310 211.364258,6.804199 212.081482,7.482186 
	C208.299362,8.546605 204.490143,9.892902 200.678299,9.900332 
	C137.759201,10.022984 74.839752,9.977236 11.451068,9.936441 
z"/>
<path fill="#F9F105" opacity="1.000000" stroke="none" 
	d="
M184.473236,91.496971 
	C170.128571,100.173515 154.747925,104.799896 138.688644,107.431633 
	C106.322304,112.735703 74.964127,109.554222 44.928200,95.957977 
	C36.342236,92.071419 28.624022,86.776512 22.883701,79.179253 
	C12.741645,65.756317 13.645751,54.542213 26.196232,41.298244 
	C36.603981,30.315407 50.291069,24.810005 64.531738,20.875751 
	C102.416451,10.409378 139.631042,12.035954 175.837906,28.002680 
	C184.773438,31.943121 192.753998,37.419697 198.668213,45.341442 
	C208.333862,58.288010 207.268738,71.164169 195.595963,82.481941 
	C192.269211,85.707527 188.393951,88.367416 184.473236,91.496971 
M69.012321,34.579430 
	C69.346207,34.381603 69.680092,34.183777 70.007683,33.213840 
	C70.600006,31.252443 71.192322,29.291046 71.765358,27.393518 
	C69.695679,26.834719 67.120193,26.139353 63.549599,25.175314 
	C64.483284,27.534929 65.085190,29.056065 65.020988,30.816103 
	C64.374825,31.499636 63.728657,32.183167 63.082489,32.866699 
	C64.037094,32.927250 64.991707,32.987801 66.456467,33.148949 
	C66.626701,33.116364 66.796944,33.083778 67.007820,33.018307 
	C67.007820,33.018307 66.958679,33.031330 67.225250,33.614445 
	C67.814247,33.760693 68.403252,33.906937 68.997322,33.998592 
	C68.997322,33.998592 68.953842,34.032009 69.012321,34.579430 
M113.717102,99.328133 
	C112.171761,96.408997 110.420349,96.129372 107.939148,99.081749 
	C109.532242,99.826462 110.793839,100.416214 112.347229,101.620163 
	C113.398880,101.411423 114.450539,101.202690 115.502190,100.993958 
	C115.002365,100.654182 114.502548,100.314400 113.717102,99.328133 
M160.714493,33.943943 
	C161.116867,33.647804 161.519257,33.351665 162.105530,32.429497 
	C162.205734,30.481390 162.305939,28.533285 162.406128,26.585178 
	C161.898117,26.548416 161.390091,26.511654 160.882080,26.474892 
	C160.016113,27.822002 158.727524,29.084715 158.435608,30.546467 
	C158.247025,31.490843 159.518219,32.726727 160.714493,33.943943 
M135.470322,33.933712 
	C116.349335,31.419918 97.252586,31.599331 78.297554,35.167267 
	C65.194527,37.633675 52.188545,40.727970 41.378742,49.259281 
	C31.710665,56.889511 31.313011,66.684814 41.339981,73.657547 
	C48.178043,78.412720 55.958229,82.642830 63.940376,84.779037 
	C98.000999,93.894432 132.067276,93.574265 165.630203,81.939407 
	C173.060150,79.363762 179.976700,75.588448 184.713684,68.912521 
	C188.088852,64.155815 188.499222,58.985634 184.686920,54.622673 
	C181.266098,50.707741 177.211243,46.397335 172.548813,44.703091 
	C160.748611,40.415123 148.449722,37.499512 135.470322,33.933712 
M30.326502,66.335022 
	C28.896475,62.382820 27.466450,58.430614 26.324688,55.275097 
	C23.443056,56.810867 21.074162,58.073376 19.021437,59.167377 
	C20.149103,61.301159 21.303823,63.486134 22.058355,64.913864 
	C24.912403,65.598923 27.375244,66.190079 30.326502,66.335022 
M193.639374,57.498642 
	C191.964142,57.964706 190.288895,58.430775 188.582092,58.905621 
	C190.339691,61.197071 191.896118,63.226254 193.444778,65.245300 
	C194.995316,65.366753 196.947922,65.519691 199.625336,65.729408 
	C198.465042,61.925838 197.332733,58.213966 195.869080,53.415962 
	C194.828506,55.291206 194.391312,56.079094 193.639374,57.498642 
M111.435104,27.027212 
	C112.523582,27.027212 113.612053,27.027212 114.675957,27.027212 
	C115.026382,25.359915 115.351448,23.813263 115.670128,22.297012 
	C113.706055,21.061298 111.986481,19.979410 110.226753,18.872263 
	C108.524353,20.199339 107.019470,21.372442 106.269669,21.956934 
	C106.674362,24.275845 106.969460,25.966785 107.326508,28.012676 
	C108.278908,27.764912 109.494156,27.448769 111.435104,27.027212 
M160.029709,91.169167 
	C160.135071,91.280258 160.224823,91.418159 160.351837,91.492027 
	C160.423767,91.533859 160.649643,91.465919 160.649094,91.455368 
	C160.615051,90.782707 160.564850,90.110863 160.516113,89.438950 
	C160.317627,89.799530 160.119125,90.160110 160.029709,91.169167 
z"/>
<path fill="#007BB9" opacity="1.000000" stroke="none" 
	d="
M210.657715,10.191219 
	C211.010269,42.976635 210.949066,75.952805 211.095291,108.928047 
	C211.114853,113.339966 210.035004,115.119446 205.240677,115.108421 
	C140.787933,114.960236 76.334785,114.988640 11.410705,114.907707 
	C12.788297,114.235840 14.636133,113.102264 16.485659,113.099503 
	C78.236954,113.007347 139.988403,113.029877 201.739838,113.014885 
	C209.768555,113.012932 209.009537,113.846481 209.014648,105.854607 
	C209.033707,76.060806 208.997162,46.266911 209.077560,16.473310 
	C209.083038,14.441674 209.880051,12.412175 210.657715,10.191219 
z"/>
<path fill="#55B7E8" opacity="1.000000" stroke="none" 
	d="
M8.455866,113.019455 
	C8.040190,80.498695 8.005934,47.866806 8.046847,15.235013 
	C8.048541,13.884132 8.754103,12.534133 9.517700,11.082961 
	C9.933395,43.605343 9.976851,76.228500 9.944411,108.851585 
	C9.943067,110.204193 9.231527,111.556107 8.455866,113.019455 
z"/>
<path fill="#0594DA" opacity="1.000000" stroke="none" 
	d="
M135.910461,33.983955 
	C148.449722,37.499512 160.748611,40.415123 172.548813,44.703091 
	C177.211243,46.397335 181.266098,50.707741 184.686920,54.622673 
	C188.499222,58.985634 188.088852,64.155815 184.713684,68.912521 
	C179.976700,75.588448 173.060150,79.363762 165.630203,81.939407 
	C132.067276,93.574265 98.000999,93.894432 63.940376,84.779037 
	C55.958229,82.642830 48.178043,78.412720 41.339981,73.657547 
	C31.313011,66.684814 31.710665,56.889511 41.378742,49.259281 
	C52.188545,40.727970 65.194527,37.633675 78.297554,35.167267 
	C97.252586,31.599331 116.349335,31.419918 135.910461,33.983955 
M158.892120,45.503540 
	C158.625229,45.290466 158.358353,45.077389 157.882294,44.761112 
	C157.882294,44.761112 157.850449,44.530064 157.712143,43.858135 
	C157.134567,43.570969 156.556976,43.283798 155.314697,42.834801 
	C154.213821,42.588413 153.112946,42.342022 151.569885,41.491013 
	C147.383545,40.504444 144.243500,41.444752 143.084671,46.085903 
	C143.084671,46.085903 143.090607,46.117725 142.289978,46.053688 
	C141.193878,45.368622 140.159027,44.540928 138.985168,44.036980 
	C137.707718,43.488556 136.301208,43.240749 134.180420,42.683224 
	C133.135132,42.675587 132.089844,42.667950 130.535904,42.294338 
	C129.370026,42.434826 128.204147,42.575314 126.466934,42.668957 
	C126.282310,42.718628 126.097679,42.768303 124.987541,42.824417 
	C119.639427,42.917706 114.291321,43.010998 108.706230,42.615147 
	C108.209007,42.490276 107.711792,42.365402 106.496696,42.111343 
	C106.012436,42.069538 105.528183,42.027729 104.347015,41.960522 
	C103.887344,42.018974 103.427666,42.077423 102.036972,42.183540 
	C97.386208,42.226101 92.735443,42.268661 87.606476,42.100044 
	C87.432678,42.087444 87.258881,42.074841 86.355827,42.035442 
	C85.539543,42.420418 84.723251,42.805393 83.299553,43.059483 
	C82.887650,43.023872 82.475746,42.988262 81.581947,42.779728 
	C81.413513,42.807186 81.245071,42.834641 80.310524,42.629684 
	C79.777374,42.630238 79.244225,42.630791 78.119370,42.148235 
	C74.338509,42.141033 70.557648,42.133835 65.978447,42.191116 
	C63.848892,42.150990 62.047009,42.225060 62.096832,45.260582 
	C62.282505,56.572102 62.301323,67.886360 62.302830,79.738747 
	C62.505688,80.234322 62.708546,80.729889 63.152111,81.946777 
	C64.678177,82.258049 66.213135,82.864502 67.728455,82.818855 
	C70.834846,82.725288 73.930717,82.281998 77.497452,82.539948 
	C79.594276,82.326187 81.691109,82.112434 84.529160,81.902641 
	C85.451439,81.560799 86.373726,81.218956 87.655281,80.937599 
	C87.655281,80.937599 87.892090,81.214470 87.912437,81.652702 
	C87.912437,81.652702 88.010521,82.080292 88.478821,82.603767 
	C90.702744,82.783150 93.060722,85.925995 95.708290,82.240181 
	C96.104759,82.268715 96.501221,82.297241 97.208206,83.047829 
	C98.761734,83.360275 100.312134,83.923203 101.869324,83.942673 
	C109.411964,84.036957 116.956436,83.984398 124.500259,83.985641 
	C133.457047,83.987114 142.418304,84.151718 151.368103,83.902885 
	C154.385178,83.819000 158.380508,84.398415 159.308319,79.090118 
	C160.250732,77.723648 161.193146,76.357178 162.680725,74.376419 
	C162.405869,69.905647 162.131012,65.434883 161.431503,60.605400 
	C160.673920,60.677799 159.916336,60.750198 158.273468,60.972233 
	C150.925766,61.034588 150.925766,61.034588 151.872803,66.191536 
	C153.861191,67.518265 156.664337,69.160286 156.751480,70.935616 
	C156.945969,74.898033 153.318314,74.898438 150.330612,74.993195 
	C149.837845,75.008820 149.341858,74.922333 148.804764,74.168633 
	C145.068329,69.657478 145.864151,64.264435 145.933197,59.045364 
	C146.019592,52.513725 148.153595,50.654713 155.147308,51.640915 
	C155.692108,52.575642 156.236908,53.510368 157.038177,55.060112 
	C158.825546,54.640488 160.612900,54.220860 162.400269,53.801235 
	C161.616699,51.868130 160.833130,49.935024 159.993958,47.991772 
	C159.993958,47.991772 160.025696,47.945007 160.075500,47.336170 
	C159.711533,46.893505 159.347565,46.450844 159.000610,45.999847 
	C159.000610,45.999847 158.988388,46.014519 158.892120,45.503540 
z"/>
<path fill="#EE980D" opacity="1.000000" stroke="none" 
	d="
M30.082294,66.558128 
	C27.375244,66.190079 24.912403,65.598923 22.058355,64.913864 
	C21.303823,63.486134 20.149103,61.301159 19.021437,59.167377 
	C21.074162,58.073376 23.443056,56.810867 26.324688,55.275097 
	C27.466450,58.430614 28.896475,62.382820 30.082294,66.558128 
z"/>
<path fill="#EE960D" opacity="1.000000" stroke="none" 
	d="
M193.796753,57.182816 
	C194.391312,56.079094 194.828506,55.291206 195.869080,53.415962 
	C197.332733,58.213966 198.465042,61.925838 199.625336,65.729408 
	C196.947922,65.519691 194.995316,65.366753 193.444778,65.245300 
	C191.896118,63.226254 190.339691,61.197071 188.582092,58.905621 
	C190.288895,58.430775 191.964142,57.964706 193.796753,57.182816 
z"/>
<path fill="#EE940E" opacity="1.000000" stroke="none" 
	d="
M111.072250,27.079920 
	C109.494156,27.448769 108.278908,27.764912 107.326508,28.012676 
	C106.969460,25.966785 106.674362,24.275845 106.269669,21.956934 
	C107.019470,21.372442 108.524353,20.199339 110.226753,18.872263 
	C111.986481,19.979410 113.706055,21.061298 115.670128,22.297012 
	C115.351448,23.813263 115.026382,25.359915 114.675957,27.027212 
	C113.612053,27.027212 112.523582,27.027212 111.072250,27.079920 
z"/>
<path fill="#EF9B0D" opacity="1.000000" stroke="none" 
	d="
M65.687096,30.577202 
	C65.085190,29.056065 64.483284,27.534929 63.549599,25.175314 
	C67.120193,26.139353 69.695679,26.834719 71.765358,27.393518 
	C71.192322,29.291046 70.600006,31.252443 69.744774,33.588909 
	C69.305862,33.986656 69.129852,34.009331 68.953842,34.032009 
	C68.953842,34.032009 68.997322,33.998592 68.873672,33.727783 
	C68.152916,33.315090 67.555794,33.173210 66.958679,33.031330 
	C66.958679,33.031330 67.007820,33.018307 67.056068,32.718754 
	C66.729202,31.935141 66.354088,31.451080 65.901443,30.872982 
	C65.823906,30.778946 65.687096,30.577202 65.687096,30.577202 
z"/>
<path fill="#EC8B0F" opacity="1.000000" stroke="none" 
	d="
M160.135239,33.831978 
	C159.518219,32.726727 158.247025,31.490843 158.435608,30.546467 
	C158.727524,29.084715 160.016113,27.822002 160.882080,26.474892 
	C161.390091,26.511654 161.898117,26.548416 162.406128,26.585178 
	C162.305939,28.533285 162.205734,30.481390 161.773926,32.636703 
	C161.006622,33.173267 160.570938,33.502625 160.135239,33.831978 
z"/>
<path fill="#F3AE0A" opacity="1.000000" stroke="none" 
	d="
M112.055435,101.005951 
	C110.793839,100.416214 109.532242,99.826462 107.939148,99.081749 
	C110.420349,96.129372 112.171761,96.408997 113.718636,99.910950 
	C113.165253,100.664497 112.610344,100.835220 112.055435,101.005951 
z"/>
<path fill="#EF9B0D" opacity="1.000000" stroke="none" 
	d="
M65.946304,33.048351 
	C64.991707,32.987801 64.037094,32.927250 63.082489,32.866699 
	C63.728657,32.183167 64.374825,31.499636 65.354042,30.696651 
	C65.687096,30.577202 65.823906,30.778946 65.868874,31.219433 
	C65.924667,32.122730 65.935486,32.585541 65.946304,33.048351 
z"/>
<path fill="#DD391A" opacity="1.000000" stroke="none" 
	d="
M112.201332,101.313057 
	C112.610344,100.835220 113.165253,100.664497 113.861450,100.234192 
	C114.502548,100.314400 115.002365,100.654182 115.502190,100.993958 
	C114.450539,101.202690 113.398880,101.411423 112.201332,101.313057 
z"/>
<path fill="#DB2B1C" opacity="1.000000" stroke="none" 
	d="
M159.975174,90.844925 
	C160.119125,90.160110 160.317627,89.799530 160.516113,89.438950 
	C160.564850,90.110863 160.615051,90.782707 160.649094,91.455368 
	C160.649643,91.465919 160.423767,91.533859 160.351837,91.492027 
	C160.224823,91.418159 160.135071,91.280258 159.975174,90.844925 
z"/>
<path fill="#DA231D" opacity="1.000000" stroke="none" 
	d="
M160.424866,33.887962 
	C160.570938,33.502625 161.006622,33.173267 161.681976,32.949715 
	C161.519257,33.351665 161.116867,33.647804 160.424866,33.887962 
z"/>
<path fill="#DF4119" opacity="1.000000" stroke="none" 
	d="
M67.091965,33.322887 
	C67.555794,33.173210 68.152916,33.315090 68.871140,33.755077 
	C68.403252,33.906937 67.814247,33.760693 67.091965,33.322887 
z"/>
<path fill="#DF4119" opacity="1.000000" stroke="none" 
	d="
M66.201385,33.098648 
	C65.935486,32.585541 65.924667,32.122730 65.946411,31.313471 
	C66.354088,31.451080 66.729202,31.935141 67.035751,32.735199 
	C66.796944,33.083778 66.626701,33.116364 66.201385,33.098648 
z"/>
<path fill="#DF4119" opacity="1.000000" stroke="none" 
	d="
M68.983078,34.305717 
	C69.129852,34.009331 69.305862,33.986656 69.747925,33.974968 
	C69.680092,34.183777 69.346207,34.381603 68.983078,34.305717 
z"/>
<path fill="#0A90BF" opacity="1.000000" stroke="none" 
	d="
M105.043922,41.985924 
	C105.528183,42.027729 106.012436,42.069538 106.805321,42.544769 
	C107.359604,44.648739 107.605263,46.319279 108.118988,48.313427 
	C110.474602,48.913540 112.562141,49.190044 115.287102,49.550976 
	C115.287102,51.748848 115.249413,53.852856 115.293762,55.955135 
	C115.467262,64.178841 115.666672,72.402000 116.272446,80.842239 
	C117.851089,80.168495 119.713020,79.470261 120.022598,78.344963 
	C120.571915,76.348259 120.180359,74.092415 120.180504,71.944992 
	C120.181023,64.423004 120.180710,56.901024 120.180710,49.443714 
	C122.931435,49.186924 124.855072,49.007347 127.038277,48.803539 
	C127.038277,46.591709 127.038277,44.653755 127.038277,42.715797 
	C128.204147,42.575314 129.370026,42.434826 130.590515,42.865921 
	C130.645111,55.844913 130.645111,68.252319 130.645111,80.674362 
	C134.143021,82.044586 135.119598,80.590919 135.082886,77.276512 
	C134.955841,65.805885 134.982681,54.333557 134.950974,42.861877 
	C136.301208,43.240749 137.707718,43.488556 138.985168,44.036980 
	C140.159027,44.540928 141.193878,45.368622 142.668243,46.439354 
	C142.356628,48.763851 141.666779,50.702690 140.617447,52.857555 
	C138.067245,59.277973 138.189713,65.438721 140.630646,71.912552 
	C142.393600,74.832855 144.132568,77.396790 146.122208,80.261581 
	C150.868423,84.145157 154.834641,81.162048 158.911514,79.551628 
	C158.380508,84.398415 154.385178,83.819000 151.368103,83.902885 
	C142.418304,84.151718 133.457047,83.987114 124.500259,83.985641 
	C116.956436,83.984398 109.411964,84.036957 101.869324,83.942673 
	C100.312134,83.923203 98.761734,83.360275 97.495773,82.597107 
	C100.503479,81.744606 103.223625,81.342827 105.949623,80.970467 
	C105.955475,80.999878 105.924736,80.941185 106.220749,80.744476 
	C106.353958,79.016174 106.191147,77.484581 105.811172,75.661858 
	C104.668617,75.163231 103.743233,74.955727 102.531006,74.490509 
	C99.347359,74.061615 96.450554,73.890442 93.656624,73.725349 
	C92.213570,65.661972 92.630318,65.096336 99.675415,65.047447 
	C105.599892,65.006332 106.304611,63.864666 103.784378,57.923916 
	C103.371185,57.899227 103.205490,57.940449 102.703354,57.863468 
	C102.133949,57.699268 101.900978,57.653275 101.380348,57.381012 
	C98.331573,57.162224 95.570450,57.169704 92.804428,57.166275 
	C92.799530,57.155365 92.772217,57.174706 92.850471,56.740021 
	C92.329514,51.341827 94.401833,49.651623 99.441307,49.933384 
	C106.790283,50.344269 107.478424,49.059372 105.043922,41.985924 
z"/>
<path fill="#D12822" opacity="1.000000" stroke="none" 
	d="
M140.976913,52.641525 
	C141.666779,50.702690 142.356628,48.763851 143.068542,46.471371 
	C143.090607,46.117725 143.084671,46.085903 143.422424,45.944847 
	C146.510803,44.567738 149.261429,43.331684 152.012070,42.095634 
	C153.112946,42.342022 154.213821,42.588413 155.800476,43.185349 
	C156.807648,43.867287 157.329041,44.198677 157.850449,44.530064 
	C157.850449,44.530064 157.882294,44.761112 158.027954,45.078873 
	C158.445190,45.602596 158.716797,45.808559 158.988388,46.014519 
	C158.988388,46.014519 159.000610,45.999847 158.999847,46.294605 
	C159.341278,47.041245 159.683487,47.493130 160.025696,47.945007 
	C160.025696,47.945007 159.993958,47.991772 160.004456,48.369446 
	C161.879547,52.316044 160.123520,53.830479 156.781708,54.445091 
	C156.236908,53.510368 155.692108,52.575642 154.860947,51.051735 
	C150.583237,47.553181 147.921463,47.861725 145.575974,51.729542 
	C141.655258,58.194977 142.098831,64.912506 145.077179,71.514671 
	C145.710541,72.918671 147.558807,73.774612 148.847351,74.883049 
	C149.341858,74.922333 149.837845,75.008820 150.330612,74.993195 
	C153.318314,74.898438 156.945969,74.898033 156.751480,70.935616 
	C156.664337,69.160286 153.861191,67.518265 151.872803,66.191536 
	C150.925766,61.034588 150.925766,61.034588 158.987610,61.226509 
	C159.822159,64.913536 160.032059,68.346054 160.041290,71.779114 
	C160.054092,76.537941 157.116455,79.678741 152.272186,80.045647 
	C150.152939,80.206161 148.005920,80.000244 145.871521,79.960724 
	C144.132568,77.396790 142.393600,74.832855 140.756927,71.455940 
	C140.898453,64.642479 140.937683,58.642002 140.976913,52.641525 
z"/>
<path fill="#C23330" opacity="1.000000" stroke="none" 
	d="
M62.911400,81.225464 
	C62.708546,80.729889 62.505688,80.234322 62.699673,79.295471 
	C63.389942,77.294456 63.922100,75.739014 63.937111,74.178589 
	C64.019600,65.604034 63.808010,57.022507 64.101898,48.457253 
	C64.168816,46.506836 65.834015,44.611256 67.121628,42.958977 
	C67.628899,47.006496 67.864563,50.784611 67.902374,54.564709 
	C67.938332,58.159435 69.949921,58.997448 73.072121,58.796440 
	C75.945290,58.611465 78.143288,58.184158 78.045227,54.383049 
	C77.944397,50.474140 78.463341,46.549244 78.711075,42.631344 
	C79.244225,42.630791 79.777374,42.630238 80.619873,43.169769 
	C80.624603,45.809303 80.083153,47.905827 80.057152,50.008724 
	C79.955116,58.259426 80.137451,66.515259 79.926476,74.761818 
	C79.876358,76.720917 78.711197,78.651489 77.856094,80.605087 
	C77.653259,80.614998 77.247101,80.615410 77.241364,80.172043 
	C77.235634,74.669052 77.235634,69.609413 77.235634,64.572975 
	C73.673355,64.572975 70.957329,64.572975 67.773178,64.572975 
	C67.773178,70.209915 67.773178,75.467857 67.773178,80.927094 
	C65.844658,81.045448 64.378029,81.135452 62.911400,81.225464 
z"/>
<path fill="#C13330" opacity="1.000000" stroke="none" 
	d="
M134.565704,42.772552 
	C134.982681,54.333557 134.955841,65.805885 135.082886,77.276512 
	C135.119598,80.590919 134.143021,82.044586 130.645111,80.674362 
	C130.645111,68.252319 130.645111,55.844913 130.844833,43.048912 
	C132.089844,42.667950 133.135132,42.675587 134.565704,42.772552 
z"/>
<path fill="#D34B47" opacity="1.000000" stroke="none" 
	d="
M115.856453,80.625359 
	C115.666672,72.402000 115.467262,64.178841 115.293762,55.955135 
	C115.249413,53.852856 115.287102,51.748848 115.287102,49.550976 
	C112.562141,49.190044 110.474602,48.913540 108.190903,47.952602 
	C108.310898,45.880207 108.627052,44.492249 108.943207,43.104286 
	C114.291321,43.010998 119.639427,42.917706 125.429886,43.210789 
	C124.664619,44.699837 123.499275,46.679276 122.241455,46.739899 
	C118.548500,46.917881 117.872505,48.785992 117.919151,51.917797 
	C118.032906,59.554962 118.095078,67.199249 117.860031,74.830872 
	C117.799973,76.781090 116.556313,78.694855 115.856453,80.625359 
z"/>
<path fill="#048BBA" opacity="1.000000" stroke="none" 
	d="
M63.031754,81.586121 
	C64.378029,81.135452 65.844658,81.045448 67.773178,80.927094 
	C67.773178,75.467857 67.773178,70.209915 67.773178,64.572975 
	C70.957329,64.572975 73.673355,64.572975 77.235634,64.572975 
	C77.235634,69.609413 77.235634,74.669052 77.174362,80.511902 
	C77.085693,81.524307 77.058304,81.753494 77.030914,81.982681 
	C73.930717,82.281998 70.834846,82.725288 67.728455,82.818855 
	C66.213135,82.864502 64.678177,82.258049 63.031754,81.586121 
z"/>
<path fill="#1192C0" opacity="1.000000" stroke="none" 
	d="
M78.415222,42.389790 
	C78.463341,46.549244 77.944397,50.474140 78.045227,54.383049 
	C78.143288,58.184158 75.945290,58.611465 73.072121,58.796440 
	C69.949921,58.997448 67.938332,58.159435 67.902374,54.564709 
	C67.864563,50.784611 67.628899,47.006496 67.152390,42.819019 
	C66.825104,42.410526 66.776787,42.126633 66.776787,42.126633 
	C70.557648,42.133835 74.338509,42.141033 78.415222,42.389790 
z"/>
<path fill="#B22220" opacity="1.000000" stroke="none" 
	d="
M103.039787,57.981670 
	C103.205490,57.940449 103.371185,57.899227 103.798691,58.367111 
	C103.979767,60.464291 103.899025,62.052368 103.787956,64.236832 
	C99.628014,64.236832 95.914757,64.236832 92.283150,64.236832 
	C91.117088,76.197830 93.707321,78.613701 102.817856,74.748230 
	C103.743233,74.955727 104.668617,75.163231 105.708267,76.069565 
	C105.856606,78.159332 105.890671,79.550255 105.924736,80.941185 
	C105.924736,80.941185 105.955475,80.999878 105.484283,80.994232 
	C99.306099,81.063881 93.599091,81.139175 87.892090,81.214478 
	C87.892090,81.214470 87.655281,80.937599 87.414474,80.612808 
	C87.116783,79.897316 87.059898,79.506607 87.190140,79.060341 
	C87.377274,79.004784 87.737816,78.857941 88.091515,78.756348 
	C88.708076,77.473450 88.970947,76.292145 89.536926,75.008072 
	C89.930389,70.609306 90.020729,66.313309 90.564468,62.018051 
	C93.004005,62.017120 95.024940,61.779404 96.968590,62.065952 
	C100.368874,62.567257 102.299141,61.251366 103.039787,57.981670 
z"/>
<path fill="#0099CC" opacity="1.000000" stroke="none" 
	d="
M87.003014,79.115898 
	C87.059898,79.506607 87.116783,79.897316 87.234833,80.582565 
	C86.373726,81.218956 85.451439,81.560799 84.206177,81.444534 
	C83.891121,68.387741 83.899048,55.789051 83.906967,43.190365 
	C84.723251,42.805393 85.539543,42.420418 86.690811,42.430569 
	C87.158531,43.312202 87.291283,43.798706 87.384384,44.727737 
	C87.364426,55.735371 87.384102,66.300476 87.242126,77.217560 
	C87.054657,78.084991 87.028831,78.600441 87.003014,79.115898 
z"/>
<path fill="#AC1614" opacity="1.000000" stroke="none" 
	d="
M116.272446,80.842239 
	C116.556313,78.694855 117.799973,76.781090 117.860031,74.830872 
	C118.095078,67.199249 118.032906,59.554962 117.919151,51.917797 
	C117.872505,48.785992 118.548500,46.917881 122.241455,46.739899 
	C123.499275,46.679276 124.664619,44.699837 125.892639,43.207565 
	C126.097679,42.768303 126.282310,42.718628 126.752609,42.692379 
	C127.038277,44.653755 127.038277,46.591709 127.038277,48.803539 
	C124.855072,49.007347 122.931435,49.186924 120.180710,49.443714 
	C120.180710,56.901024 120.181023,64.423004 120.180504,71.944992 
	C120.180359,74.092415 120.571915,76.348259 120.022598,78.344963 
	C119.713020,79.470261 117.851089,80.168495 116.272446,80.842239 
z"/>
<path fill="#156F92" opacity="1.000000" stroke="none" 
	d="
M83.603256,43.124924 
	C83.899048,55.789051 83.891121,68.387741 83.835564,81.442551 
	C81.691109,82.112434 79.594276,82.326187 77.264183,82.261314 
	C77.058304,81.753494 77.085693,81.524307 77.180099,80.955261 
	C77.247101,80.615410 77.653259,80.614998 78.256485,80.772964 
	C82.386398,81.558922 82.064896,79.137184 82.063278,76.923264 
	C82.055023,65.599731 82.062119,54.276188 82.063843,42.952652 
	C82.475746,42.988262 82.887650,43.023872 83.603256,43.124924 
z"/>
<path fill="#0D6C8F" opacity="1.000000" stroke="none" 
	d="
M148.826050,74.525841 
	C147.558807,73.774612 145.710541,72.918671 145.077179,71.514671 
	C142.098831,64.912506 141.655258,58.194977 145.575974,51.729542 
	C147.921463,47.861725 150.583237,47.553181 154.659622,50.792915 
	C148.153595,50.654713 146.019592,52.513725 145.933197,59.045364 
	C145.864151,64.264435 145.068329,69.657478 148.826050,74.525841 
z"/>
<path fill="#BE8288" opacity="1.000000" stroke="none" 
	d="
M66.377617,42.158875 
	C66.776787,42.126633 66.825104,42.410526 66.794342,42.550484 
	C65.834015,44.611256 64.168816,46.506836 64.101898,48.457253 
	C63.808010,57.022507 64.019600,65.604034 63.937111,74.178589 
	C63.922100,75.739014 63.389942,77.294456 62.739639,79.025894 
	C62.301323,67.886360 62.282505,56.572102 62.096832,45.260582 
	C62.047009,42.225060 63.848892,42.150990 66.377617,42.158875 
z"/>
<path fill="#AB1514" opacity="1.000000" stroke="none" 
	d="
M81.822891,42.866188 
	C82.062119,54.276188 82.055023,65.599731 82.063278,76.923264 
	C82.064896,79.137184 82.386398,81.558922 78.459320,80.763062 
	C78.711197,78.651489 79.876358,76.720917 79.926476,74.761818 
	C80.137451,66.515259 79.955116,58.259426 80.057152,50.008724 
	C80.083153,47.905827 80.624603,45.809303 81.002930,43.285973 
	C81.245071,42.834641 81.413513,42.807186 81.822891,42.866188 
z"/>
<path fill="#882428" opacity="1.000000" stroke="none" 
	d="
M146.122208,80.261581 
	C148.005920,80.000244 150.152939,80.206161 152.272186,80.045647 
	C157.116455,79.678741 160.054092,76.537941 160.041290,71.779114 
	C160.032059,68.346054 159.822159,64.913536 159.430267,61.151688 
	C159.916336,60.750198 160.673920,60.677799 161.620834,61.253395 
	C161.918625,66.264496 162.027100,70.627602 162.135559,74.990700 
	C161.193146,76.357178 160.250732,77.723648 159.109924,79.320877 
	C154.834641,81.162048 150.868423,84.145157 146.122208,80.261581 
z"/>
<path fill="#247697" opacity="1.000000" stroke="none" 
	d="
M104.695465,41.973221 
	C107.478424,49.059372 106.790283,50.344269 99.441307,49.933384 
	C94.401833,49.651623 92.329514,51.341827 92.536011,56.480011 
	C92.081444,54.182392 92.019600,51.710110 92.414177,49.167442 
	C95.959335,48.742290 99.073036,48.529434 102.129608,47.991802 
	C105.034042,47.480930 104.699318,45.671890 103.379730,43.453018 
	C103.205139,42.833153 103.086563,42.484512 102.967987,42.135872 
	C103.427666,42.077423 103.887344,42.018974 104.695465,41.973221 
z"/>
<path fill="#B3838C" opacity="1.000000" stroke="none" 
	d="
M102.502480,42.159706 
	C103.086563,42.484512 103.205139,42.833153 103.275154,43.544483 
	C103.226593,43.907173 103.078186,44.137642 102.612282,44.069885 
	C98.376877,44.083881 94.607384,44.165634 90.610794,44.189907 
	C89.979996,44.322433 89.576279,44.512440 88.952347,44.666470 
	C88.423279,44.595142 88.167404,44.459736 87.975357,43.904442 
	C88.019035,43.160149 88.051857,42.735687 88.084679,42.311226 
	C92.735443,42.268661 97.386208,42.226101 102.502480,42.159706 
z"/>
<path fill="#0D769E" opacity="1.000000" stroke="none" 
	d="
M156.909943,54.752602 
	C160.123520,53.830479 161.879547,52.316044 160.032257,48.374523 
	C160.833130,49.935024 161.616699,51.868130 162.400269,53.801231 
	C160.612900,54.220860 158.825546,54.640488 156.909943,54.752602 
z"/>
<path fill="#0A90BF" opacity="1.000000" stroke="none" 
	d="
M151.790985,41.793324 
	C149.261429,43.331684 146.510803,44.567738 143.435989,45.943760 
	C144.243500,41.444752 147.383545,40.504444 151.790985,41.793324 
z"/>
<path fill="#1080A8" opacity="1.000000" stroke="none" 
	d="
M87.902267,81.433594 
	C93.599091,81.139175 99.306099,81.063881 105.478439,80.964821 
	C103.223625,81.342827 100.503479,81.744606 97.340515,82.236084 
	C96.501221,82.297241 96.104759,82.268715 94.968201,82.190018 
	C92.155579,82.119995 90.083054,82.100143 88.010521,82.080292 
	C88.010521,82.080292 87.912437,81.652702 87.902267,81.433594 
z"/>
<path fill="#0A90BF" opacity="1.000000" stroke="none" 
	d="
M162.408142,74.683563 
	C162.027100,70.627602 161.918625,66.264496 161.833160,61.432755 
	C162.131012,65.434883 162.405869,69.905647 162.408142,74.683563 
z"/>
<path fill="#0A90BF" opacity="1.000000" stroke="none" 
	d="
M88.244675,82.342026 
	C90.083054,82.100143 92.155579,82.119995 94.670387,82.221756 
	C93.060722,85.925995 90.702744,82.783150 88.244675,82.342026 
z"/>
<path fill="#247697" opacity="1.000000" stroke="none" 
	d="
M108.824722,42.859718 
	C108.627052,44.492249 108.310898,45.880207 107.922836,47.628990 
	C107.605263,46.319279 107.359604,44.648739 107.164261,42.609367 
	C107.711792,42.365402 108.209007,42.490276 108.824722,42.859718 
z"/>
<path fill="#0D769E" opacity="1.000000" stroke="none" 
	d="
M160.050598,47.640591 
	C159.683487,47.493130 159.341278,47.041245 158.991333,46.298775 
	C159.347565,46.450844 159.711533,46.893505 160.050598,47.640591 
z"/>
<path fill="#0D769E" opacity="1.000000" stroke="none" 
	d="
M157.781296,44.194099 
	C157.329041,44.198677 156.807648,43.867287 156.132812,43.266262 
	C156.556976,43.283798 157.134567,43.570969 157.781296,44.194099 
z"/>
<path fill="#968F9E" opacity="1.000000" stroke="none" 
	d="
M87.845581,42.205635 
	C88.051857,42.735687 88.019035,43.160149 87.842850,43.942001 
	C87.699478,44.299397 87.424034,44.285210 87.424034,44.285210 
	C87.291283,43.798706 87.158531,43.312202 87.055435,42.443970 
	C87.258881,42.074841 87.432678,42.087444 87.845581,42.205635 
z"/>
<path fill="#0D769E" opacity="1.000000" stroke="none" 
	d="
M158.940247,45.759029 
	C158.716797,45.808559 158.445190,45.602596 158.132538,45.130478 
	C158.358353,45.077389 158.625229,45.290466 158.940247,45.759029 
z"/>
<path fill="#BF2420" opacity="1.000000" stroke="none" 
	d="
M91.957756,49.237823 
	C92.019600,51.710110 92.081444,54.182392 92.457748,56.914692 
	C92.772217,57.174706 92.799530,57.155365 92.905479,57.542610 
	C95.896957,57.822334 98.782478,57.714809 101.668007,57.607285 
	C101.900978,57.653275 102.133949,57.699268 102.703354,57.863468 
	C102.299141,61.251366 100.368874,62.567257 96.968590,62.065952 
	C95.024940,61.779404 93.004005,62.017120 90.337708,61.994911 
	C89.657547,61.971031 89.207039,61.920959 89.169388,61.502625 
	C89.224411,59.695915 89.317070,58.307533 89.747681,56.822002 
	C90.709679,54.229172 91.333717,51.733498 91.957756,49.237823 
z"/>
<path fill="#247697" opacity="1.000000" stroke="none" 
	d="
M102.531006,74.490509 
	C93.707321,78.613701 91.117088,76.197830 92.283150,64.236832 
	C95.914757,64.236832 99.628014,64.236832 103.787956,64.236832 
	C103.899025,62.052368 103.979767,60.464291 104.046188,58.433014 
	C106.304611,63.864666 105.599892,65.006332 99.675415,65.047447 
	C92.630318,65.096336 92.213570,65.661972 93.656624,73.725349 
	C96.450554,73.890442 99.347359,74.061615 102.531006,74.490509 
z"/>
<path fill="#D0797A" opacity="1.000000" stroke="none" 
	d="
M140.617447,52.857555 
	C140.937683,58.642002 140.898453,64.642479 140.732941,71.099571 
	C138.189713,65.438721 138.067245,59.277973 140.617447,52.857555 
z"/>
<path fill="#247697" opacity="1.000000" stroke="none" 
	d="
M101.380348,57.381012 
	C98.782478,57.714809 95.896957,57.822334 92.910385,57.553520 
	C95.570450,57.169704 98.331573,57.162224 101.380348,57.381012 
z"/>
<path fill="#1080A8" opacity="1.000000" stroke="none" 
	d="
M106.220749,80.744476 
	C105.890671,79.550255 105.856606,78.159332 105.925446,76.360695 
	C106.191147,77.484581 106.353958,79.016174 106.220749,80.744476 
z"/>
<path fill="#FC6F65" opacity="1.000000" stroke="none" 
	d="
M89.409737,56.919155 
	C89.317070,58.307533 89.224411,59.695915 89.095215,61.969784 
	C89.117065,66.940460 89.175446,71.025650 89.233818,75.110840 
	C88.970947,76.292145 88.708076,77.473450 88.172836,78.496841 
	C87.734909,77.847809 87.569344,77.356697 87.403778,76.865585 
	C87.384102,66.300476 87.364426,55.735371 87.384384,44.727737 
	C87.424034,44.285210 87.699478,44.299397 87.831985,44.261837 
	C88.167404,44.459736 88.423279,44.595142 88.975937,44.998566 
	C89.395576,46.202812 89.571411,47.038990 89.552406,48.226856 
	C89.374954,51.358746 89.392349,54.138950 89.409737,56.919155 
z"/>
<path fill="#DA352F" opacity="1.000000" stroke="none" 
	d="
M89.536942,75.008072 
	C89.175446,71.025650 89.117065,66.940460 89.132858,62.388115 
	C89.207039,61.920959 89.657547,61.971031 89.884308,61.994171 
	C90.020729,66.313309 89.930389,70.609306 89.536942,75.008072 
z"/>
<path fill="#968F9E" opacity="1.000000" stroke="none" 
	d="
M87.242126,77.217560 
	C87.569344,77.356697 87.734909,77.847809 87.819138,78.598427 
	C87.737816,78.857941 87.377274,79.004784 87.190140,79.060341 
	C87.028831,78.600441 87.054657,78.084991 87.242126,77.217560 
z"/>
<path fill="#C4110C" opacity="1.000000" stroke="none" 
	d="
M89.747681,56.822002 
	C89.392349,54.138950 89.374954,51.358746 89.820343,48.180428 
	C90.515694,47.520721 90.748276,47.259132 91.442368,46.995220 
	C94.649643,46.988235 97.435219,47.250366 100.121841,46.849415 
	C101.217781,46.685852 102.099174,45.084728 103.078186,44.137642 
	C103.078186,44.137642 103.226593,43.907173 103.331161,43.815708 
	C104.699318,45.671890 105.034042,47.480930 102.129608,47.991802 
	C99.073036,48.529434 95.959335,48.742290 92.414177,49.167442 
	C91.333717,51.733498 90.709679,54.229172 89.747681,56.822002 
z"/>
<path fill="#DC2E26" opacity="1.000000" stroke="none" 
	d="
M102.612282,44.069885 
	C102.099174,45.084728 101.217781,46.685852 100.121841,46.849415 
	C97.435219,47.250366 94.649643,46.988235 91.445343,46.649319 
	C90.937164,45.619621 90.887520,44.933506 90.837883,44.247387 
	C94.607384,44.165634 98.376877,44.083881 102.612282,44.069885 
z"/>
<path fill="#BF2420" opacity="1.000000" stroke="none" 
	d="
M90.610794,44.189907 
	C90.887520,44.933506 90.937164,45.619621 90.983826,46.651642 
	C90.748276,47.259132 90.515694,47.520721 90.015182,47.828743 
	C89.571411,47.038990 89.395576,46.202812 89.196152,45.034538 
	C89.576279,44.512440 89.979996,44.322433 90.610794,44.189907 
z"/>
</svg>